<svg width="24" height="24" viewBox="0 0 24 24" fill="none" xmlns="http://www.w3.org/2000/svg">
<path fill-rule="evenodd" clip-rule="evenodd" d="M15.566 19.1524L17.7073 21.2937L14.1384 22.0075L13.4247 21.2937L15.566 19.1524ZM11.8829 2.00751V3.43506L14.738 4.86261H17.5931L19.0207 13.4279L21.162 19.8519L19.7344 21.2795L5.45892 7.00394L9.0278 2.00751H11.8829ZM11.9971 15.5835L14.1384 17.7249L10.5696 18.4386L9.85577 17.7249L11.9971 15.5835ZM8.42822 12.0146L10.5696 14.156L7.00067 14.8697L6.2869 14.156L8.42822 12.0146ZM16.8936 12.2859H13.5389L15.5517 14.2987H17.2362L16.8936 12.2859ZM4.85934 8.44577L7.00067 10.5871L3.43179 11.3009L2.71802 10.5871L4.85934 8.44577ZM16.1513 8.43149H9.75585L11.7687 10.4443H16.4939L16.1513 8.43149Z" fill="black"/>
</svg>
