<svg width="24" height="24" viewBox="0 0 24 24" fill="none" xmlns="http://www.w3.org/2000/svg">
<g clip-path="url(#clip0_442_395)">
<mask id="mask0_442_395" style="mask-type:luminance" maskUnits="userSpaceOnUse" x="2" y="2" width="20" height="20">
<path d="M2 2H22V22H2V2Z" fill="white"/>
</mask>
<g mask="url(#mask0_442_395)">
<path d="M21.8429 2L6.28571 17.5571L6.27143 19.7571L22 4.02857V2H21.8429ZM2 16.4857L5.2 19.7143L5.21429 17.5571L2 14.3286V16.4857ZM12.0143 4.35714C12.5 3.71429 12.8 2.91429 12.8 2.05714V2.01429H10.0857V2.05714C10.0857 2.17143 10.0571 2.27143 10.0286 2.37143L12.0143 4.35714ZM12.7714 5.11429L15 7.34286L20.3286 2.01429H13.8571V2.05714C13.8571 3.21429 13.4286 4.27143 12.7571 5.11429H12.7714ZM8.94286 5.9C9.81429 5.9 10.6 5.6 11.2429 5.11429L9.25714 3.12857C9.15714 3.15714 9.05714 3.2 8.94286 3.2C8.31429 3.2 7.8 2.68571 7.8 2.05714V2.01429H5.08571V2.05714C5.08571 4.18571 6.81429 5.91429 8.94286 5.91429V5.9Z" fill="white"/>
<path d="M12.0143 5.87143C11.1714 6.54286 10.1143 6.97143 8.95714 6.97143C7.65 6.97143 6.3964 6.45217 5.47212 5.52788C4.54783 4.6036 4.02857 3.35 4.02857 2.04286V2H2V5.9L7.98571 11.8857L4.52857 15.3429L5.75714 16.5714L14.2429 8.08571L12.0143 5.85714V5.87143Z" fill="white"/>
<path d="M3.77143 14.5857L6.47143 11.8857L2 7.41429V12.8143L3.77143 14.5857ZM19.4429 14.0143L20.1571 13.3C19.3143 12.6286 18.2714 12.2143 17.1143 12.2143L17.6143 13.4571L19.4571 14.0143H19.4429ZM12.6286 15.1571L15.2571 15.0857L16.5714 13.7714L16 12.3571C14.4857 12.7143 13.2429 13.7571 12.6286 15.1571ZM20.4 17.6857L19.2 18.9L19.0857 21.5857C20.3857 21.0143 21.3857 19.8714 21.7857 18.4857L20.4 17.7V17.6857ZM20.2 14.7857L20.7143 16.6429L21.9857 17.3714C21.9857 17.2857 22.0143 17.2 22.0143 17.1143C22.0143 15.9571 21.6 14.9143 20.9286 14.0714L20.2143 14.7857H20.2ZM19.1571 15.0429L17.3571 14.5L16.1 15.7571L16.6571 17.5429L18.5143 18.0714L19.6714 16.9143L19.1571 15.0429ZM13.0714 19.8571C13.4143 20.3714 13.8571 20.8 14.3571 21.1429L14.1714 20.0429L13.0714 19.8571ZM15.1143 16.1714L12.3143 16.2429C12.2571 16.5286 12.2286 16.8143 12.2286 17.1143C12.2286 17.6714 12.3429 18.1857 12.5143 18.6857L14.4714 19.0143L15.6429 17.8429L15.1286 16.1857L15.1143 16.1714ZM15.2143 19.7571L15.5429 21.7143C16.0429 21.8857 16.5571 22 17.1143 22C17.4143 22 17.7143 21.9571 18 21.9143L18.1286 19.0857L16.4 18.5857L15.2143 19.7714V19.7571Z" fill="white"/>
</g>
</g>
<defs>
<clipPath id="clip0_442_395">
<rect width="20" height="20" fill="white" transform="translate(2 2)"/>
</clipPath>
</defs>
</svg>
