<svg width="24" height="24" viewBox="0 0 24 24" fill="none" xmlns="http://www.w3.org/2000/svg">
<path fill-rule="evenodd" clip-rule="evenodd" d="M10.596 16.9531L13.3161 19.6732L12.543 22.0067L9.49363 21.9781H9.40773L5.22738 19.8879L7.17439 16.9531H10.596ZM18.2122 18.2702L19.6582 19.1292L19.4864 19.4584C19.4787 19.4713 19.469 19.4829 19.4577 19.4928L19.4005 19.5443L14.49 21.9924C14.4614 22.0067 14.4041 22.0067 14.4041 22.0067H13.674L14.2466 20.2745V20.2888L18.2122 18.2702ZM9.89448 1.97828L14.6332 2.06418L19.3862 4.49794L19.4577 4.56952L21.9345 9.45136C21.9531 9.46997 21.9602 9.5029 21.9631 9.52151V9.8379L19.9731 9.59453L18.7706 5.92956L18.8421 5.38555L14.2753 3.06631H10.8823L13.1872 5.55734L10.7105 8.06269L6.50153 8.7785L5.38486 5.24238L5.18443 5.3426L3.02268 9.66611V13.8035H4.16798L6.3011 16.3232L4.35409 19.258L1.99191 14.5193C1.98127 14.4975 1.97634 14.4734 1.97759 14.4492V9.40841C1.97759 9.40412 2.04058 9.27527 2.14509 9.06482L2.28969 8.77134L2.37558 8.59955L2.78073 7.78925L2.8924 7.56591L3.12432 7.1035L3.35768 6.63822L3.69554 5.96535L3.9017 5.55591L4.08208 5.19514L4.25674 4.84869L4.32116 4.71984L4.41135 4.54089L4.48294 4.49794H4.49725C4.51157 4.49794 4.52588 4.46931 4.52588 4.46931L9.42204 1.99259C9.44384 1.98196 9.46798 1.97703 9.49219 1.97828H9.89448ZM19.8729 10.6682L21.9774 10.9259V14.4621C21.9774 14.4907 21.9631 14.548 21.9631 14.548L20.1592 18.1556L18.4699 17.1535L17.9116 13.8579L19.8729 10.6682ZM10.6819 9.16504L12.5144 12.6582L10.8823 15.8794H7.33187L5.11285 13.2738L6.44426 9.88085L10.6819 9.16504ZM14.1607 6.10136L17.9688 6.88875L18.9996 10.0097L17.1958 12.9445L13.5451 12.3432L11.6267 8.66397L14.1607 6.10136Z" fill="white"/>
</svg>
