<svg width="24" height="24" viewBox="0 0 24 24" fill="none" xmlns="http://www.w3.org/2000/svg">
<path d="M16.609 18.9313H19.8629C20.1097 18.9369 20.3488 18.8453 20.5286 18.6761C20.746 18.4764 20.9645 18.2779 21.1842 18.0807L21.6583 17.6508C21.8197 17.5407 21.9341 17.3743 21.979 17.1841C22.024 16.994 21.9961 16.7939 21.901 16.6232L21.2851 15.0774C20.6398 13.4544 19.9729 11.7769 19.3026 10.1312L19.1518 9.75696C18.8563 8.97252 18.5065 8.20966 18.1049 7.47389C17.7083 6.72239 17.1075 6.09819 16.3717 5.6732C15.6359 5.24821 14.795 5.0397 13.9459 5.0717H6.28798C5.73073 5.0671 5.18 5.1917 4.67899 5.43571C4.17798 5.67972 3.74033 6.03651 3.40038 6.47808C2.63054 7.41315 2.16337 8.5603 2.06092 9.76717C1.82334 11.6126 2.28586 13.4801 3.35728 15.0014C3.76695 15.6464 4.33865 16.1727 5.0153 16.5278C5.69195 16.8828 6.44989 17.0542 7.21347 17.0247C7.71477 17.0077 8.22742 17.0111 8.72192 17.0145H9.63833C9.75175 17.0145 9.78577 17.0372 9.82433 17.137C9.93775 17.424 10.0512 17.7109 10.1714 17.9899L10.3154 18.3302C10.3674 18.5168 10.4846 18.6787 10.6456 18.7865C10.8066 18.8942 11.0009 18.9408 11.1933 18.9177H16.609V18.9313ZM19.9321 16.1288H13.0442C12.8957 16.1288 12.839 16.089 12.78 15.9416L12.2583 14.6441C11.428 12.5788 10.5695 10.4477 9.70071 8.35172C9.52413 7.95549 9.31828 7.57299 9.08485 7.20735C8.98731 7.0463 8.88637 6.87844 8.79223 6.71285C8.77449 6.68238 8.75519 6.65285 8.7344 6.62438H14.3089C14.6748 6.62941 15.0356 6.71139 15.3677 6.86497C15.6999 7.01856 15.9961 7.24031 16.2369 7.51584C16.6944 8.01304 17.0511 8.59427 17.2872 9.22731C17.9892 10.9546 18.697 12.7126 19.3831 14.4127L20.0262 16.0074C20.0398 16.0403 20.0512 16.0743 20.0636 16.1151C20.0192 16.1239 19.974 16.1281 19.9287 16.1276L19.9321 16.1288Z" fill="#909090"/>
<path d="M17.2259 13.8105H13.4468C13.3367 13.8112 13.2288 13.7792 13.1367 13.7187C13.0447 13.6581 12.9727 13.5717 12.9297 13.4703L12.4374 12.2794C12.4021 12.1944 12.3884 12.102 12.3974 12.0103C12.4064 11.9187 12.4379 11.8308 12.489 11.7542C12.5402 11.6777 12.6094 11.615 12.6907 11.5717C12.7719 11.5283 12.8626 11.5057 12.9546 11.5059H16.7337C16.8438 11.5052 16.9517 11.5371 17.0438 11.5977C17.1358 11.6582 17.2079 11.7447 17.2509 11.8461L17.7431 13.037C17.7784 13.122 17.7921 13.2144 17.7831 13.3061C17.7741 13.3977 17.7426 13.4856 17.6915 13.5621C17.6403 13.6387 17.571 13.7014 17.4898 13.7447C17.4086 13.7881 17.318 13.8106 17.2259 13.8105Z" fill="#909090"/>
</svg>
